<svg xmlns="http://www.w3.org/2000/svg" viewBox="0 0 294.11 114.21">
    <defs>
        <style>
            .cls-2{fill:#fff}
        </style>
    </defs>
    <g id="Layer_2" data-name="Layer 2">
        <g id="Layer_1-2" data-name="Layer 1">
            <path d="M9.6 44h16l.4 7.31a28.61 28.61 0 0 1 7.78-6.06 20.4 20.4 0 0 1 10-2.62 15.51 15.51 0 0 1 3 .28l-1.25 16.8a23.34 23.34 0 0 0-5.92-.71 15.85 15.85 0 0 0-7.85 2 12.21 12.21 0 0 0-5.09 4.89v46.94H9.6zm38.82 0h16.65l11.84 48 12.94-46.61h14.31L117 92.05l12-48h16.66l-20.1 68.82h-14.38L97 68l-14.17 44.84H68.51zm118.1 65.39a32.54 32.54 0 0 1-12.25-12.94A37.86 37.86 0 0 1 150 78.56a38.69 38.69 0 0 1 4.27-18 32.33 32.33 0 0 1 12.25-13.08 39.32 39.32 0 0 1 37.71 0 32.35 32.35 0 0 1 12.25 13.08 38.71 38.71 0 0 1 4.27 18 37.88 37.88 0 0 1-4.27 17.89 32.56 32.56 0 0 1-12.25 12.94 39.32 39.32 0 0 1-37.71 0zm32-15.14q4.75-5.92 4.75-15.69t-4.75-15.9q-4.75-6-13.15-6t-13.14 6q-4.75 6-4.75 15.9t4.75 15.69q4.75 5.92 13.14 5.92t13.15-5.92zM237 109.19q-4.41-5-4.4-13V9.6h17.07v79.56a33.48 33.48 0 0 0 .62 7.78 3.52 3.52 0 0 0 2.2 2.75 21 21 0 0 0 5.44.48l-1.51 14h-6.22q-8.81.04-13.2-4.98zm36.19 0q-4.41-5-4.4-13V9.6h17.07v79.56a33.48 33.48 0 0 0 .62 7.78 3.52 3.52 0 0 0 2.2 2.75 21 21 0 0 0 5.44.48l-1.51 14h-6.21q-8.81.04-13.21-4.98z" fill="#fff143"/>
            <path d="M.5 104.73V34.91h16.94l.37 6.59a30.16 30.16 0 0 1 7.1-5.29 21 21 0 0 1 10.22-2.68 16.08 16.08 0 0 1 3.13.29l.43.09-1.31 17.83-.58-.15a22.91 22.91 0 0 0-5.8-.68 15.41 15.41 0 0 0-7.6 1.93 11.86 11.86 0 0 0-4.84 4.57v47.31z"/>
            <path class="cls-2" d="M35.14 34a15.49 15.49 0 0 1 3 .28L36.92 51.1a23.28 23.28 0 0 0-5.92-.69 15.83 15.83 0 0 0-7.85 2 12.21 12.21 0 0 0-5.09 4.89v46.94H1V35.41h16l.41 7.3a28.61 28.61 0 0 1 7.78-6.06 20.41 20.41 0 0 1 10-2.62m0-1a21.49 21.49 0 0 0-10.46 2.74 31.53 31.53 0 0 0-6.43 4.6l-.28-5-.05-.94H0v70.82h19.07v-47.7a11.46 11.46 0 0 1 4.58-4.27A14.92 14.92 0 0 1 31 51.41a22.41 22.41 0 0 1 5.66.66l1.16.31.09-1.2 1.24-16.79.07-.88-.87-.17a16.56 16.56 0 0 0-3.22-.3z"/>
            <path d="M102.21 104.73L88.4 61.02l-13.81 43.71H59.53L39.15 34.91h17.71l11.47 46.56 12.53-45.18h15.08l12.4 45.18 11.6-46.56h17.72l-20.39 69.82h-15.06z"/>
            <path class="cls-2" d="M137 35.41l-20.1 68.82h-14.32L88.4 59.36l-14.18 44.87H59.91l-20.1-68.82h16.66l11.84 48 12.94-46.62h14.31l12.8 46.66 12-48H137m1.33-1h-18.78l-.19.76-11.05 44.29-11.79-43-.2-.74H80.48l-.2.73-11.92 43-10.92-44.32-.19-.76H38.48l.37 1.28 20.1 68.82.21.72H75l.22-.7L88.4 62.68l13.22 41.85.22.7h15.8l.21-.72L138 35.69l.37-1.28z"/>
            <path d="M176.77 106.11a36.43 36.43 0 0 1-19.12-4.89 33.18 33.18 0 0 1-12.43-13.13A38.53 38.53 0 0 1 140.9 70a39.37 39.37 0 0 1 4.32-18.26 33 33 0 0 1 12.44-13.27 39.81 39.81 0 0 1 38.23 0 33 33 0 0 1 12.43 13.23 39.38 39.38 0 0 1 4.33 18.3 38.55 38.55 0 0 1-4.33 18.13 33.21 33.21 0 0 1-12.43 13.13 36.43 36.43 0 0 1-19.12 4.85zm0-57.54c-5.41 0-9.7 2-12.75 5.8s-4.64 9.13-4.64 15.63 1.56 11.5 4.62 15.34 7.34 5.73 12.75 5.73 9.71-1.93 12.76-5.73 4.64-9 4.64-15.38-1.56-11.71-4.64-15.59-7.33-5.8-12.74-5.8z"/>
            <path class="cls-2" d="M176.77 34a35.8 35.8 0 0 1 18.86 4.82 32.34 32.34 0 0 1 12.25 13.07 38.72 38.72 0 0 1 4.27 18 37.88 37.88 0 0 1-4.27 17.89 32.56 32.56 0 0 1-12.25 12.94 35.78 35.78 0 0 1-18.86 4.82 35.78 35.78 0 0 1-18.86-4.82 32.53 32.53 0 0 1-12.25-12.94A37.87 37.87 0 0 1 141.4 70a38.7 38.7 0 0 1 4.27-18 32.31 32.31 0 0 1 12.25-13.07A35.79 35.79 0 0 1 176.77 34m0 57.54q8.39 0 13.14-5.92T194.66 70q0-9.91-4.75-15.9t-13.14-6q-8.4 0-13.15 6T158.88 70q0 9.77 4.75 15.69t13.15 5.92m0-58.54a36.93 36.93 0 0 0-19.37 5 33.45 33.45 0 0 0-12.62 13.47A39.86 39.86 0 0 0 140.4 70a39 39 0 0 0 4.38 18.36 33.67 33.67 0 0 0 12.62 13.33 40.3 40.3 0 0 0 38.75 0 33.69 33.69 0 0 0 12.62-13.33A39 39 0 0 0 213.14 70a39.88 39.88 0 0 0-4.38-18.49A33.47 33.47 0 0 0 196.14 38a36.94 36.94 0 0 0-19.37-5zm0 57.54c-5.33 0-9.37-1.81-12.36-5.54s-4.53-8.81-4.53-15.07 1.53-11.48 4.53-15.28 7-5.61 12.36-5.61 9.37 1.83 12.36 5.61 4.53 8.93 4.53 15.28-1.53 11.28-4.53 15-7 5.54-12.37 5.54z"/>
            <path d="M241.6 106.11c-6 0-10.57-1.75-13.59-5.19s-4.53-7.91-4.53-13.34V.5h18.07v80.06a33.21 33.21 0 0 0 .6 7.65 3 3 0 0 0 1.85 2.4 20.73 20.73 0 0 0 5.29.46h.56l-1.62 15z"/>
            <path class="cls-2" d="M241 1v79.56a33.46 33.46 0 0 0 .62 7.78 3.52 3.52 0 0 0 2.2 2.75 21 21 0 0 0 5.44.48l-1.52 14h-6.14q-8.81 0-13.22-5t-4.4-13V1H241m1-1h-19v87.58c0 5.55 1.57 10.15 4.65 13.67s7.82 5.36 14 5.36h7.09l.1-.89 1.52-14 .12-1.11h-1.11a20.36 20.36 0 0 1-5.14-.44c-.26-.08-1.06-.32-1.53-2.06a32.84 32.84 0 0 1-.58-7.51V0z"/>
            <path d="M277.8 106.11c-6 0-10.57-1.75-13.59-5.19s-4.53-7.91-4.53-13.34V.5h18.07v80.06a33.21 33.21 0 0 0 .6 7.65 3 3 0 0 0 1.86 2.41 20.73 20.73 0 0 0 5.29.46h.56l-1.62 15z"/>
            <path class="cls-2" d="M277.25 1v79.56a33.46 33.46 0 0 0 .62 7.78 3.52 3.52 0 0 0 2.2 2.75 21 21 0 0 0 5.44.48l-1.52 14h-6.19q-8.81 0-13.22-5t-4.4-13V1h17.07m1-1h-19.07v87.58c0 5.55 1.57 10.15 4.65 13.67s7.82 5.36 14 5.36h7.09l.1-.89 1.51-14 .12-1.11h-1.11a20.36 20.36 0 0 1-5.14-.44c-.26-.08-1.06-.32-1.53-2.06a32.84 32.84 0 0 1-.58-7.51V0z"/>
        </g>
    </g>
</svg>
